<svg xmlns="http://www.w3.org/2000/svg" xmlns:xlink="http://www.w3.org/1999/xlink" x="0" y="0" enable-background="new 0 0 32 32" version="1.1" viewBox="0 0 32 32" xml:space="preserve"><g id="TEMPLATE" display="none"><g display="inline"><path fill="#D0D0D0" d="M32,0v32H0V0H32 M33-1h-1H0h-1v1v32v1h1h32h1v-1V0V-1L33-1z"/></g><path fill="#FF1D25" d="M0,0v32h32V0H0z M30,30H2V2h28V30z" display="inline" opacity=".1"/></g><g id="ICONS"><polygon fill="#A6A6A6" points="2 26 2 9 16 9 19 6 30 6 30 26"/><polygon fill="#828282" points="19 6 16 9 19 12 30 12 30 6"/><linearGradient id="SVGID_1_" x1="6.769" x2="26.709" y1="4.999" y2="28.762" gradientUnits="userSpaceOnUse"><stop offset="0" style="stop-color:#000;stop-opacity:0"/><stop offset=".863" style="stop-color:#000;stop-opacity:.1725"/><stop offset="1" style="stop-color:#000;stop-opacity:.2"/></linearGradient><polygon fill="url(#SVGID_1_)" points="2 26 2 9 16 9 19 6 30 6 30 26"/><linearGradient id="SVGID_2_" x1="23.444" x2="22.839" y1="5.426" y2="12.336" gradientUnits="userSpaceOnUse"><stop offset="0" style="stop-color:#828282;stop-opacity:0"/><stop offset=".427" style="stop-color:gray;stop-opacity:.1067"/><stop offset=".58" style="stop-color:#797979;stop-opacity:.1451"/><stop offset=".69" style="stop-color:#6e6e6e;stop-opacity:.1725"/><stop offset=".778" style="stop-color:#5d5d5d;stop-opacity:.1946"/><stop offset=".854" style="stop-color:#474747;stop-opacity:.2136"/><stop offset=".921" style="stop-color:#2b2b2b;stop-opacity:.2304"/><stop offset=".981" style="stop-color:#0c0c0c;stop-opacity:.2452"/><stop offset="1" style="stop-color:#000;stop-opacity:.25"/></linearGradient><polygon fill="url(#SVGID_2_)" points="19 6 16 9 19 12 30 12 30 6"/><polygon fill="#FFF" points="30 12 30 12.5 18.771 12.5 15.25 9 16 9 19.021 12" opacity=".15"/></g></svg>